# xmcd CD database file
#
# Track frame offsets:
#	150
#	5028
#	39730
#	53830
#	78545
#	100577
#	110947
#	118534
#	123922
#	132009
#
# Disc length: 2317 seconds
#
# Revision: 0
# Processed by: cddbd v1.5.1PL0 Copyright (c) Steve Scherf et al.
# Submitted via: CDex 1.51
#
DISCID=82090b0a
DTITLE=Fania All Stars - Fania All Stars - Live in Africa
DYEAR=1974
DGENRE=Salsa
TTITLE0=Traditional Congo Tribal Song
TTITLE1=Descarga Fania All Stars In Africa
TTITLE2=Kinshasha Airport Arrival Jam
TTITLE3=Rehearsal Of New Material
TTITLE4=Guantanamera
TTITLE5=African Drum - Ray Barretto - Ivory Market Jam
TTITLE6=Pacheco Signs Autographs
TTITLE7=Hector Lavoe and Ismael Quintana
TTITLE8=Pupi Warms Up
TTITLE9=Ponte Duro
EXTD=YEAR: 1974
EXTT0=
EXTT1=
EXTT2=
EXTT3=
EXTT4=
EXTT5=
EXTT6=
EXTT7=
EXTT8=
EXTT9=
PLAYORDER=
